<svg xmlns="http://www.w3.org/2000/svg" width="200" height="130.87" viewBox="0 0 200 130.874" fill="#000"><title>Correios (1970)</title><polygon points="40.001,87.242,65.199,43.619,25.203,43.619,0,87.242"/><polygon points="115.1,43.619,89.922,0,129.91,0,155.11,43.619,129.91,87.247,89.922,87.247"/><polygon points="70.213,43.619,45.021,87.247,70.213,130.87,74.644,130.87,49.456,87.247,74.644,43.619"/><polygon points="77.295,43.619,52.107,87.247,77.295,130.87,81.738,130.87,56.55,87.247,81.738,43.619"/><polygon points="84.382,43.619,59.202,87.247,84.382,130.87,88.825,130.87,63.637,87.247,88.825,43.619"/><polygon points="91.477,43.619,66.289,87.247,91.477,130.87,95.912,130.87,70.727,87.247,95.912,43.619"/><polygon points="98.563,43.619,73.383,87.247,98.563,130.87,102.99,130.87,77.813,87.247,102.99,43.619"/><polygon points="105.65,43.619,80.47,87.247,105.65,130.87,110.09,130.87,84.9,87.247,110.09,43.619"/><polygon points="160.11,43.619,134.92,87.247,139.36,87.247,164.56,43.619"/><polygon points="167.21,43.619,142.01,87.247,146.46,87.247,171.64,43.619"/><polygon points="174.3,43.619,149.11,87.247,153.54,87.247,178.72,43.619"/><polygon points="181.38,43.619,156.2,87.247,160.63,87.247,185.82,43.619"/><polygon points="188.47,43.619,163.28,87.247,167.72,87.247,192.9,43.619"/><polygon points="195.56,43.619,170.37,87.247,174.81,87.247,200,43.619"/></svg>